<svg version="1.1" viewBox="0 0 256 256" xml:space="preserve" xmlns="http://www.w3.org/2000/svg">
	
	
	
	<path d="m16 16h70.606c5.9394 0 9.3939 5.0827 9.3939 11.128v68.872h-19.697v-59.85h-11.515v59.85h-17.879v-59.85h-11.212v59.85h-19.697z" stroke-width=".30189" aria-label="M" text-data="M"/><rect x="108" y="16" width="20" height="80" stroke-width=".3042" aria-label="I" text-data="I"/><path d="m140 16h58.589c5.95 0 9.4107 5.0827 9.4107 11.128v58.947c0 7.4887-3.1571 9.9248-10.018 9.9248h-57.982v-50.827h20.036v31.278h28.232v-42.406h-48.268z" stroke-width=".30216" aria-label="D" text-data="D"/>
<rect x="220" y="16" width="20" height="80" stroke-width=".3042" aria-label="I" text-data="I"/><path d="m64 112h112.97c9.503 0 15.03 8.1323 15.03 17.805v110.2h-31.515v-95.759h-18.424v95.759h-28.606v-95.759h-17.939v95.759h-31.515z" fill="#75507b" stroke-width=".48302" aria-label="M" text-data="M"/></svg>
